<svg version="1.1" id="Layer_1" xmlns="http://www.w3.org/2000/svg" xmlns:xlink="http://www.w3.org/1999/xlink" x="0px" y="0px" viewBox="0 0 255.0918 237.1826" enable-background="new 0 0 255.0918 237.1826" xml:space="preserve">
<g>
	<path d="M175.2153,227.1743c0,5.5234,4.4766,10,10,10c5.5215,0,10-4.4766,10-10v-49.4595c-7.6598-0.0939-14.3361-0.8215-20-1.8389
		V227.1743z" id="id_101" style="fill: rgb(98, 17, 122);"></path>
	<path d="M198.5494,227.1743c0,5.5234,4.4756,10,10,10c5.5195,0,10-4.4766,10-10v-51.2985c-5.6639,1.0174-12.3403,1.7449-20,1.8389
		V227.1743z" id="id_102" style="fill: rgb(87, 13, 110);"></path>
	<path d="M213.8157,56.1625c2.9756,0.5295,11.5012,2.9382,20.4889,13.5637c0.5387-0.8311,0.9362-1.7726,1.139-2.8039
		c0.8525-4.335-1.9717-8.5405-6.3066-9.3926c-7.7935-1.532-15.7606-2.7244-23.5432-3.6531
		c-0.5123,0.1956-1.0314,0.377-1.5595,0.5385C208.5893,54.9406,212.334,55.7952,213.8157,56.1625z" id="id_103" style="fill: rgb(80, 8, 102);"></path>
	<path d="M150.1858,167.2128l2.0337-9.9953v-13.8073c-1.7502,1.9384-4.2706,3.15-7.0337,3.1503c-0.417,0-0.8398-0.0278-1.2559-0.083
		c-5.1904-0.6846-8.8584-5.4663-8.1748-10.6597c3.4557-26.2056,9.6971-43.81,16.4644-55.6358V66.7003
		c2.7075,0.0186,6.0303,0.0663,9.8298,0.1686c7.9951-8.2157,15.2122-10.2281,17.9001-10.7064
		c1.4816-0.3673,5.2261-1.2219,9.7813-1.7473c-1.9963-0.6105-3.8849-1.4688-5.6299-2.5403
		c-19.764-1.3631-35.4318-1.2202-39.2443-1.1582c-0.122-0.0057-0.2421-0.0184-0.3655-0.0184h-38.6348
		c-0.2394,0-0.4755,0.0145-0.7094,0.0358l-24.6866,0.0944c1.7227,0.986,3.515,2.2661,5.3109,3.953
		c3.2837,3.0854,6.0962,7.0931,8.4443,11.9946l3.9123-0.015v10.4687c4.37,15.0934,5.8143,35.7573,4.2889,61.8383
		c-0.1938,3.3033-1.8388,6.196-4.2889,8.0797v77.6716c0,6.8301,5.537,12.3633,12.3633,12.3633
		c6.8281,0,12.3652-5.5332,12.3652-12.3633v-90.2715h4.6348v90.2715c0,6.8301,5.5371,12.3633,12.3633,12.3633
		c6.8281,0,12.3652-5.5332,12.3652-12.3633v-56.3916c-0.1035-0.059-0.1816-0.1047-0.2134-0.1237L150.1858,167.2128z" id="id_104" style="fill: rgb(136, 70, 156);"></path>
	<path d="M125.1725,45c12.4278,0,22.5-10.0733,22.5-22.5c0-12.4268-10.0722-22.5-22.5-22.5c-12.4257,0-22.5,10.0732-22.5,22.5
		C102.6725,34.9267,112.7469,45,125.1725,45z M139.2078,31.132c-2.9087,4.7114-8.1038,7.8682-14.0352,7.8682
		c-5.9314,0-11.1265-3.1567-14.0352-7.8682H139.2078z" id="id_105" style="fill: rgb(70, 6, 93);"></path>
	<path d="M83.7164,56.968c-5.5981-5.2595-11.0684-6.1738-13.8896-6.2444c-0.167-0.0107-0.333-0.0254-0.5024-0.0254H30.6895
		c-0.1626,0-0.3208,0.0144-0.481,0.0242c-2.8145,0.0652-8.2974,0.9692-13.9121,6.2456
		C3.4039,69.0812-1.8803,96.6447,0.5914,138.8928c0.249,4.252,3.7744,7.5332,7.9785,7.5327c0.1572,0,0.3164-0.0044,0.4746-0.0137
		c4.4111-0.2578,7.7773-4.043,7.5195-8.4536c-2.0557-35.1396,1.9263-53.8701,6.397-63.1672v33.0889v18.9395v98
		c0,6.8301,5.5371,12.3633,12.3633,12.3633c6.8281,0,12.3652-5.5332,12.3652-12.3633v-90.2715h4.6348v90.2715
		c0,6.8301,5.5371,12.3633,12.3633,12.3633c6.8281,0,12.3652-5.5332,12.3652-12.3633v-98v-18.9395V74.7932
		c4.4702,9.2981,8.4517,28.0286,6.396,63.165c-0.2578,4.4106,3.1084,8.1958,7.5195,8.4536
		c0.1592,0.0093,0.3164,0.0137,0.4746,0.0137c4.2041,0,7.7295-3.2813,7.9785-7.5327
		C101.8931,96.6452,96.6089,69.0817,83.7164,56.968z" id="id_106" style="fill: rgb(93, 15, 117);"></path>
	<path d="M27.5059,22.5c0,12.4267,10.0743,22.5,22.5,22.5c12.4278,0,22.5-10.0733,22.5-22.5c0-12.4268-10.0722-22.5-22.5-22.5
		C37.5802,0,27.5059,10.0732,27.5059,22.5z M64.0411,31.132c-2.9087,4.7114-8.1038,7.8682-14.0352,7.8682
		s-11.1265-3.1567-14.0352-7.8682H64.0411z" id="id_107" style="fill: rgb(105, 13, 133);"></path>
	<path d="M213.1956,59.0995c-1.7139-0.4287-8.958-2.1235-16.3125-2.1235c-7.3555,0-14.5996,1.6948-16.3135,2.1235
		c-5.1572,0.8765-32.8262,8.7563-41.8398,77.1099c-0.4688,3.5591,2.0352,6.8247,5.5947,7.2939
		c3.5576,0.4717,6.8242-2.0356,7.2939-5.5947c4.1354-31.3585,12.2055-47.9051,19.1056-56.59l-17.1746,84.4123
		c0,0,15.0127,9,43.333,9c28.3203,0,43.334-9,43.334-9l-17.1679-84.3751c6.8843,8.7064,14.9727,25.2684,19.0983,56.5528
		c0.4316,3.271,3.2246,5.6514,6.4365,5.6514c0.2832-0.0005,0.5693-0.0186,0.8574-0.0566c3.5596-0.4692,6.0635-3.7349,5.5947-7.2939
		C246.0217,67.8558,218.3528,59.976,213.1956,59.0995z" id="id_108" style="fill: rgb(54, 22, 64);"></path>
	<path d="M196.8828,52.4828c11.8741,0,21.5-9.6259,21.5-21.5c0-11.8741-9.6259-21.5-21.5-21.5c-11.8741,0-21.5,9.6259-21.5,21.5
		C175.3828,42.8569,185.0086,52.4828,196.8828,52.4828z M210.9175,38.7986c-2.9087,4.7114-8.1038,7.8682-14.0352,7.8682
		s-11.1265-3.1567-14.0352-7.8682H210.9175z" id="id_109" style="fill: rgb(202, 102, 232);"></path>
</g>
</svg>